<svg xmlns="http://www.w3.org/2000/svg" viewBox="0 0 82.7 82.7"><path fill="#FFF" d="M71.6 64.2l-7.5 7.4c-.9.9-2.1 1.3-3.4 1.3-1.4 0-2.5-.5-3.4-1.4L46.8 61.1c-.9-.9-1.4-2.1-1.4-3.4 0-1.4.6-2.7 1.7-3.7.1.1.4.4.9 1l1.1 1.1c.2.2.5.4 1 .8.4.3.9.5 1.3.7.4.1.9.2 1.4.2 1.4 0 2.5-.5 3.4-1.4.9-.9 1.4-2.1 1.4-3.4 0-.5-.1-1-.2-1.4-.1-.4-.3-.9-.7-1.3-.3-.4-.6-.8-.8-1-.2-.2-.5-.6-1.1-1.1-.5-.5-.9-.8-1-.9 1-1.1 2.2-1.6 3.6-1.6s2.5.5 3.4 1.4l10.5 10.5c.9.9 1.4 2.1 1.4 3.4.3 1.1-.2 2.3-1.1 3.2zM35.7 28.8c-.1-.1-.4-.4-.9-1l-1.1-1.1c-.2-.2-.5-.4-1-.8-.4-.3-.9-.5-1.3-.7-.4-.1-.9-.2-1.4-.2-1.4 0-2.5.5-3.4 1.4-.9.9-1.4 2.1-1.4 3.4 0 .5.1 1 .2 1.4.1.4.3.9.7 1.3.3.4.6.8.8 1 .2.2.5.6 1.1 1.1.5.5.9.8 1 .9-1 1-2.2 1.6-3.6 1.6s-2.5-.5-3.4-1.4L11.2 25.3c-.9-.9-1.4-2.1-1.4-3.4 0-1.3.5-2.4 1.4-3.4l7.5-7.4c1-.9 2.1-1.4 3.4-1.4 1.4 0 2.5.5 3.4 1.4l10.4 10.5c.9.9 1.4 2.1 1.4 3.4.1 1.5-.5 2.7-1.6 3.8zm42.8 21.7L67.9 39.9c-2.8-2.8-6.3-4.3-10.3-4.3-4.1 0-7.6 1.5-10.5 4.5l-4.5-4.5c3-2.9 4.5-6.4 4.5-10.6 0-4.1-1.4-7.5-4.2-10.3L32.4 4.3C29.6 1.4 26.1 0 22.1 0 18 0 14.6 1.4 11.8 4.2l-7.5 7.4C1.4 14.4 0 17.8 0 21.9s1.4 7.5 4.3 10.3l10.5 10.5c2.8 2.8 6.3 4.3 10.3 4.3 4.1 0 7.6-1.5 10.5-4.5l4.5 4.5c-3 2.9-4.5 6.4-4.5 10.6 0 4.1 1.4 7.5 4.2 10.3l10.4 10.5c2.8 2.9 6.3 4.3 10.3 4.3 4.1 0 7.5-1.4 10.3-4.2l7.5-7.4c2.9-2.8 4.3-6.2 4.3-10.3.1-4-1.3-7.5-4.1-10.3z"/></svg>