<svg xmlns="http://www.w3.org/2000/svg" viewBox="-208.5 139.5 123 123"><path fill="#F7F7F7" d="M-123 191c-1.1 0-2-.9-2-2v-2c0-6.6-5.4-12-12-12h-4v44c0 4.4 3.6 8 8 8 1.1 0 2 .9 2 2s-.9 2-2 2h-28c-1.1 0-2-.9-2-2s.9-2 2-2c4.4 0 8-3.6 8-8v-44h-4c-6.6 0-12 5.4-12 12v2c0 1.1-.9 2-2 2s-2-.9-2-2v-16c0-1.1.9-2 2-2h48c1.1 0 2 .9 2 2v16c0 1.1-.9 2-2 2z"/><path fill="#FFF" d="M-97 262.5h-100c-6.3 0-11.5-5.2-11.5-11.5V151c0-6.3 5.2-11.5 11.5-11.5h100c6.3 0 11.5 5.2 11.5 11.5v100c0 6.3-5.2 11.5-11.5 11.5zm-100-118c-3.6 0-6.5 2.9-6.5 6.5v100c0 3.6 2.9 6.5 6.5 6.5h100c3.6 0 6.5-2.9 6.5-6.5V151c0-3.6-2.9-6.5-6.5-6.5h-100z" opacity=".5"/></svg>